<?xml version="1.0" encoding="UTF-8" standalone="no"?>
<svg width="34px" height="33px" viewBox="0 0 34 33" version="1.1" xmlns="http://www.w3.org/2000/svg" xmlns:xlink="http://www.w3.org/1999/xlink" xmlns:sketch="http://www.bohemiancoding.com/sketch/ns">
    <!-- Generator: Sketch 3.3 (11970) - http://www.bohemiancoding.com/sketch -->
    <title>Email Icon</title>
    <desc>Created with Sketch.</desc>
    <defs></defs>
    <g id="Page-1" stroke="none" stroke-width="1" fill="none" fill-rule="evenodd" sketch:type="MSPage">
        <g id="Landing" sketch:type="MSArtboardGroup" transform="translate(-723.000000, -408.000000)" fill="#FFFFFF">
            <g id="Icons" sketch:type="MSLayerGroup" transform="translate(533.690476, 408.000000)">
                <path d="M190.245119,21.3448823 C190.202975,20.9443474 190.35048,20.6386625 190.687636,20.4278274 L221.031608,0.189732143 C221.200186,0.0632440476 221.389836,0 221.600558,0 C221.81128,0 222.00093,0.0632440476 222.169507,0.189732143 C222.506663,0.400545635 222.654168,0.737847222 222.612024,1.2016369 L217.554695,31.5587798 C217.470406,31.8539187 217.301828,32.0858135 217.048962,32.2544643 C216.880384,32.3387897 216.711807,32.3809524 216.543229,32.3809524 C216.416796,32.3809524 216.290363,32.359871 216.163929,32.3177083 L206.365355,28.3965774 L204.279207,31.875 C204.068485,32.2123016 203.773474,32.3809524 203.394174,32.3809524 C203.014874,32.3809524 202.719864,32.2123016 202.509142,31.875 L198.779362,25.3608631 L190.877285,22.1986607 C190.497986,22.0300099 190.287264,21.7454063 190.245119,21.3448499 L190.245119,21.3448823 Z M193.40595,20.9970238 L199.537961,23.4635417 C199.580105,23.5057044 199.632791,23.5478671 199.696019,23.5900298 L199.790827,23.6532738 L216.859312,5.37574405 L193.40595,20.9970238 Z M200.549427,24.3489583 L203.394174,29.281994 L219.704059,3.79464286 L200.549427,24.3489583 Z M206.491788,26.3727679 C206.744654,26.4149306 206.955377,26.4570933 207.123954,26.499256 L215.721413,29.9776786 L219.767276,5.75520833 L206.491788,26.3727679 Z" id="Email-Icon" sketch:type="MSShapeGroup"></path>
            </g>
        </g>
    </g>
</svg>