<?xml version="1.0" encoding="UTF-8" standalone="no"?>
<svg width="34px" height="34px" viewBox="0 0 34 34" version="1.1" xmlns="http://www.w3.org/2000/svg" xmlns:xlink="http://www.w3.org/1999/xlink" xmlns:sketch="http://www.bohemiancoding.com/sketch/ns">
    <!-- Generator: Sketch 3.3 (11970) - http://www.bohemiancoding.com/sketch -->
    <title>Github Icon</title>
    <desc>Created with Sketch.</desc>
    <defs></defs>
    <g id="Page-1" stroke="none" stroke-width="1" fill="none" fill-rule="evenodd" sketch:type="MSPage">
        <g id="Landing" sketch:type="MSArtboardGroup" transform="translate(-533.000000, -408.000000)" fill="#FFFFFF">
            <g id="Icons" sketch:type="MSLayerGroup" transform="translate(533.690476, 408.000000)">
                <path d="M16.5952381,0.80952381 C7.42993443,0.80952381 0,8.23945824 0,17.4047619 C0,26.5700656 7.42993443,34 16.5952381,34 C25.7605418,34 33.1904762,26.5700656 33.1904762,17.4047619 C33.1904762,8.23945824 25.7605418,0.80952381 16.5952381,0.80952381 L16.5952381,0.80952381 Z M26.4504758,27.2599996 C25.1695957,28.5408149 23.6788118,29.5461233 22.0194176,30.2479852 C21.5978597,30.4262544 21.1697544,30.5827423 20.7358797,30.7177082 L20.7358797,28.2305618 C20.7358797,26.923233 20.2874841,25.9616815 19.3907578,25.3458426 C19.9525974,25.2918433 20.4684759,25.2161923 20.9384582,25.1189546 C21.4084406,25.0217169 21.905455,24.8812408 22.4294367,24.6975911 C22.9534183,24.5139415 23.4234007,24.2951566 23.8393836,24.0412365 C24.2553666,23.7873164 24.6550785,23.4578102 25.0386489,23.052653 C25.4222193,22.6474958 25.7436224,22.1883393 26.002923,21.6751186 C26.2622236,21.1618979 26.4675248,20.546059 26.6187619,19.8276018 C26.769999,19.1091447 26.8456499,18.3176945 26.8456499,17.4533808 C26.8456499,15.7787527 26.3000166,14.3525994 25.2088149,13.1749209 C25.7058293,11.878418 25.6517652,10.468471 25.046752,8.94507999 L24.6415949,8.89646112 C24.3607075,8.86404855 23.8555899,8.98287305 23.126307,9.25299944 C22.3970241,9.52312584 21.5786066,9.96607608 20.6710545,10.581915 C19.3853773,10.2253767 18.0510165,10.0471075 16.6681016,10.0471075 C15.2743609,10.0471075 13.9454453,10.2253767 12.6813549,10.581915 C12.1087544,10.1929641 11.5658438,9.87156101 11.052623,9.6176409 C10.5394023,9.3637208 10.1288647,9.19089695 9.82094522,9.09903971 C9.51302576,9.00718248 9.22669308,8.95046047 8.962012,8.9288737 C8.69733092,8.90728692 8.5271649,8.90184161 8.45151395,8.91266741 C8.375863,8.92349321 8.32186365,8.93425419 8.28945108,8.94507999 C7.68443797,10.4792968 7.63037379,11.8892438 8.12738821,13.1749209 C7.03618648,14.3525994 6.4905532,15.7787527 6.4905532,17.4533808 C6.4905532,18.3176945 6.56620415,19.1091447 6.71744122,19.8276018 C6.86867829,20.546059 7.07397954,21.1618979 7.33328013,21.6751186 C7.59258073,22.1883393 7.91398382,22.6474958 8.29755422,23.052653 C8.68112463,23.4578102 9.0808365,23.7873164 9.49681948,24.0412365 C9.91280246,24.2951566 10.3827848,24.5139415 10.9067665,24.6975911 C11.4307481,24.8812408 11.9277626,25.0217169 12.3977449,25.1189546 C12.8677272,25.2161923 13.3836057,25.2918433 13.9454453,25.3458426 C13.05948,25.9508557 12.6165298,26.912472 12.6165298,28.2305618 L12.6165298,30.7661975 C12.1271647,30.6205353 11.6448008,30.4484246 11.1709289,30.2479852 C9.51159961,29.5461233 8.02081566,28.5408149 6.73993555,27.2599996 C5.45912026,25.9791195 4.45374702,24.4883356 3.75194996,22.8289414 C3.02597312,21.1124363 2.6578311,19.2874787 2.6578311,17.4047619 C2.6578311,15.5220451 3.02597312,13.6970875 3.75201479,11.9805176 C4.45387667,10.3211882 5.45918508,8.8304043 6.74000037,7.54952418 C8.02081566,6.26864407 9.51166443,5.26333566 11.1709938,4.5615386 C12.8875637,3.83549693 14.7125213,3.46735491 16.5952381,3.46735491 C18.4779549,3.46735491 20.3029125,3.83549693 22.0194824,4.5615386 C23.6788766,5.26340048 25.1696605,6.26870889 26.4505406,7.54952418 C27.7313559,8.83033947 28.7366643,10.3211882 29.4385262,11.9805176 C30.1645031,13.6970875 30.5326451,15.5220451 30.5326451,17.4047619 C30.5326451,19.2874787 30.1645031,21.1124363 29.4384614,22.8290062 C28.7365995,24.4883356 27.7312911,25.9791843 26.4504758,27.2599996 L26.4504758,27.2599996 Z" id="Github-Icon" sketch:type="MSShapeGroup"></path>
            </g>
        </g>
    </g>
</svg>