<?xml version="1.0" encoding="UTF-8" standalone="no"?>
<svg width="34px" height="34px" viewBox="0 0 34 34" version="1.1" xmlns="http://www.w3.org/2000/svg" xmlns:xlink="http://www.w3.org/1999/xlink" xmlns:sketch="http://www.bohemiancoding.com/sketch/ns">
    <!-- Generator: Sketch 3.3 (11970) - http://www.bohemiancoding.com/sketch -->
    <title>Linkedin Icon</title>
    <desc>Created with Sketch.</desc>
    <defs></defs>
    <g id="Page-1" stroke="none" stroke-width="1" fill="none" fill-rule="evenodd" sketch:type="MSPage">
        <g id="Landing" sketch:type="MSArtboardGroup" transform="translate(-674.000000, -408.000000)" fill="#FFFFFF">
            <g id="Icons" sketch:type="MSLayerGroup" transform="translate(533.690476, 408.000000)">
                <path d="M158.673816,14.9946769 L158.723816,14.9217769 L158.723816,14.9946769 L158.673816,14.9946769 Z M168.997221,27.7826975 L163.984357,27.7826975 L163.984357,19.7648637 C163.984357,17.7501629 163.257668,16.3756753 161.444249,16.3756753 C160.057315,16.3756753 159.23423,17.3032584 158.873413,18.1988826 C158.738642,18.5178872 158.706229,18.9656345 158.706229,19.4126687 L158.706229,27.7827623 L153.693365,27.7827623 C153.693365,27.7827623 153.759098,14.2027363 153.693365,12.7974568 L158.706229,12.7974568 L158.706229,14.9218417 C159.371594,13.9008456 160.560552,12.4448079 163.223569,12.4448079 C166.522845,12.4448079 168.997221,14.5853344 168.997221,19.1900592 L168.997221,27.7826975 Z M148.413162,10.7503434 L148.379388,10.7503434 C146.697824,10.7503434 145.60727,9.60008594 145.60727,8.16031938 C145.60727,6.69105738 146.729718,5.57243462 148.444667,5.57243462 C150.160394,5.57243462 151.214646,6.69105738 151.247901,8.16031938 C151.247901,9.60008594 150.160394,10.7503434 148.413162,10.7503434 L148.413162,10.7503434 Z M150.919951,27.7826975 L145.904948,27.7826975 L145.904948,12.7973919 L150.919951,12.7973919 L150.919951,27.7826975 Z M171.596256,0 L143.309802,0 C141.955735,0 140.857143,1.06449377 140.857143,2.37804576 L140.857143,30.8115877 C140.857143,32.124297 141.955735,33.1904762 143.309802,33.1904762 L171.596191,33.1904762 C172.951555,33.1904762 174.047619,32.124297 174.047619,30.8115877 L174.047619,2.37804576 C174.047619,1.06449377 172.951555,0 171.596256,0 L171.596256,0 Z" id="Linkedin-Icon" sketch:type="MSShapeGroup"></path>
            </g>
        </g>
    </g>
</svg>