<?xml version="1.0" encoding="UTF-8" standalone="no"?>
<svg width="34px" height="28px" viewBox="0 0 34 28" version="1.1" xmlns="http://www.w3.org/2000/svg" xmlns:xlink="http://www.w3.org/1999/xlink" xmlns:sketch="http://www.bohemiancoding.com/sketch/ns">
    <!-- Generator: Sketch 3.3 (11970) - http://www.bohemiancoding.com/sketch -->
    <title>Twitter Icon</title>
    <desc>Created with Sketch.</desc>
    <defs></defs>
    <g id="Page-1" stroke="none" stroke-width="1" fill="none" fill-rule="evenodd" sketch:type="MSPage">
        <g id="Landing" sketch:type="MSArtboardGroup" transform="translate(-580.000000, -410.000000)" fill="#FFFFFF">
            <g id="Icons" sketch:type="MSLayerGroup" transform="translate(533.690476, 408.000000)">
                <path d="M80.1428571,5.68884598 C79.2185958,7.09232032 78.0846762,8.2887149 76.7410984,9.27802972 C76.7543632,9.54335898 76.7609956,9.84324893 76.7609956,10.1776996 C76.7609956,12.0359769 76.4956089,13.896502 75.9648353,15.7592749 C75.4340618,17.6220661 74.6232975,19.4050842 73.5325426,21.1083292 C72.4417877,22.8115743 71.1424979,24.3205014 69.6346732,25.6351106 C68.1268485,26.9497198 66.3143728,27.9979172 64.197246,28.7797027 C62.0801192,29.5614882 59.8111296,29.952381 57.3902774,29.952381 C53.6121331,29.952381 50.1328343,28.9111288 46.952381,26.8286244 C47.5168738,26.8927548 48.05827,26.92482 48.5765696,26.92482 C51.7329018,26.92482 54.5520139,25.9323399 57.033906,23.9473798 C55.5622451,23.9198377 54.2442623,23.4573556 53.0799576,22.5599335 C51.9156529,21.6625298 51.1144059,20.5158156 50.6762166,19.119791 C51.1093372,19.2040138 51.5368139,19.2461252 51.9586468,19.2461252 C52.565846,19.2461252 53.1633212,19.1652787 53.7510725,19.0035856 C52.1805364,18.6824748 50.8776428,17.8839182 49.8423917,16.6079156 C48.8071766,15.3319314 48.289569,13.8591981 48.289569,12.1897156 L48.289569,12.1036762 C49.253571,12.6485737 50.2818302,12.9384175 51.3743465,12.9732076 C50.443974,12.3400138 49.7063282,11.5143095 49.1614091,10.4960947 C48.616454,9.4778799 48.3439765,8.37599281 48.3439765,7.19043343 C48.3439765,5.94006471 48.6508923,4.77573534 49.2647239,3.6974453 C50.9726536,5.83708907 53.0421672,7.54715999 55.4732646,8.82765808 C57.904398,10.1081745 60.5125398,10.819334 63.29769,10.9611365 C63.1788995,10.4557448 63.1193964,9.92834329 63.1191807,9.37893191 C63.1191807,7.4605977 63.7841665,5.82262073 65.114138,4.46500101 C66.4441274,3.10738129 68.0486794,2.42857143 69.9277939,2.42857143 C71.895161,2.42857143 73.5522961,3.15988749 74.8991991,4.62251962 C76.4381009,4.31133574 77.8790172,3.74848357 79.221948,2.93396311 C78.7045651,4.59621605 77.7076077,5.87853071 76.2310758,6.78090708 C77.5881522,6.61627816 78.8920613,6.2522578 80.1428032,5.68884598 L80.1428571,5.68884598 Z" id="Twitter-Icon" sketch:type="MSShapeGroup"></path>
            </g>
        </g>
    </g>
</svg>